Coordinates
version=1
nRows=14
nColumns=40
inDegrees=yes

Units are S.I. units (second, meters, Newtons, ...)
Angles are in degrees.

endheader
time	pelvis_tilt	pelvis_list	pelvis_rotation	pelvis_tx	pelvis_ty	pelvis_tz	hip_flexion_r	hip_adduction_r	hip_rotation_r	knee_angle_r	knee_angle_r_beta	ankle_angle_r	subtalar_angle_r	mtp_angle_r	hip_flexion_l	hip_adduction_l	hip_rotation_l	knee_angle_l	knee_angle_l_beta	ankle_angle_l	subtalar_angle_l	mtp_angle_l	lumbar_extension	lumbar_bending	lumbar_rotation	arm_flex_r	arm_add_r	arm_rot_r	elbow_flex_r	pro_sup_r	wrist_flex_r	wrist_dev_r	arm_flex_l	arm_add_l	arm_rot_l	elbow_flex_l	pro_sup_l	wrist_flex_l	wrist_dev_l
     34.68750000	     -3.47969156	     -7.66184667	      0.80146958	      0.97863211	      0.92723620	      0.52537357	      4.97168895	      7.61275854	    -12.23278119	     12.82587571	     12.82587571	     13.98355092	      3.03464076	     -2.09356613	     42.21351175	    -13.48441539	      5.84673362	     72.57887749	     72.57887749	      0.86211569	    -19.47441755	     20.55786770	    -10.25413162	      4.43909291	      2.41318536	     25.96230981	    -15.41157092	      4.38197740	     89.73821243	     44.23917130	      0.00000000	      0.00000000	     -5.01597322	     -6.72578446	     -9.86687564	     26.04720968	     46.92465947	      0.00000000	      0.00000000
     34.69957143	     -3.70259813	     -7.46255816	      0.91868941	      0.97694466	      0.92717783	      0.52537635	      4.41827165	      7.45371514	    -12.36895975	     12.23397904	     12.23397904	     14.12544583	      3.45989929	     -2.03987221	     43.22254633	    -12.87416155	      5.48635462	     70.05352762	     70.05352762	      1.81478857	    -19.38498344	     20.06709368	    -10.32826895	      4.26472792	      2.63710309	     28.38943228	    -15.20065967	      4.50469425	     92.07075312	     44.18416244	      0.00000000	      0.00000000	     -5.83296353	     -6.67316932	     -9.77309129	     25.27764422	     46.88541384	      0.00000000	      0.00000000
     34.71164286	     -4.09978600	     -7.23163257	      1.00386005	      0.97516461	      0.92676231	      0.52522677	      4.14829261	      7.24055953	    -12.41128628	     11.80777981	     11.80777981	     14.27516839	      3.65236514	     -2.01711940	     44.21278915	    -12.17332218	      5.22492987	     67.11193205	     67.11193205	      2.62080950	    -19.24031575	     19.67349146	    -10.17260310	      4.04437618	      3.15427621	     30.84430137	    -15.25930948	      4.32968135	     93.50849334	     44.15960112	      0.00000000	      0.00000000	     -6.54287333	     -6.62902130	     -9.72287980	     24.92853448	     46.85888300	      0.00000000	      0.00000000
     34.72371429	     -4.21110806	     -7.05651583	      1.19272771	      0.97379340	      0.92660277	      0.52486742	      3.45395974	      7.06922469	    -12.83781685	     11.22495185	     11.22495185	     14.47961366	      4.39541247	     -1.97298459	     44.61411814	    -11.50998229	      5.11745595	     63.71025161	     63.71025161	      3.05694647	    -19.00733334	     18.29892979	    -10.40960176	      3.92399294	      3.04630478	     33.15286155	    -14.83385275	      4.96449569	     96.48255993	     44.07295671	      0.00000000	      0.00000000	     -7.50605508	     -6.62970651	     -9.44272926	     24.51110582	     46.77631865	      0.00000000	      0.00000000
     34.73578571	     -4.46452701	     -6.91876777	      1.31528386	      0.97242196	      0.92604148	      0.52451714	      3.05903972	      6.91466324	    -13.08214169	     10.93155046	     10.93155046	     14.84305254	      4.90078549	     -1.65426658	     44.85501991	    -10.99815098	      5.01544034	     59.80081161	     59.80081161	      2.48527260	    -18.77481937	     14.32537054	    -10.43093222	      3.81388405	      3.48016866	     35.33838772	    -15.04915104	      5.36662532	     98.49771468	     44.12110737	      0.00000000	      0.00000000	     -8.56105308	     -6.87534479	     -7.46117822	     25.21525344	     46.32041115	      0.00000000	      0.00000000
     34.74785714	     -4.69027759	     -6.74755148	      1.46042468	      0.97116918	      0.92538421	      0.52395971	      2.65845555	      6.73044745	    -13.17942969	     10.67909432	     10.67909432	     15.10070391	      5.05461586	     -1.71265861	     44.96662378	    -10.35257443	      5.16079164	     55.85659223	     55.85659223	      3.18582453	    -18.26217105	     14.23042840	    -10.44104395	      3.67176058	      3.72372858	     37.62097094	    -14.82579933	      5.36056574	     99.82271368	     44.09879978	      0.00000000	      0.00000000	     -9.27742466	     -6.88123451	     -7.27741931	     25.10706451	     46.26869935	      0.00000000	      0.00000000
     34.75992857	     -4.96893292	     -6.65809694	      1.59514973	      0.97005539	      0.92443963	      0.52330311	      2.33602295	      6.61958171	    -13.32325530	     10.47982781	     10.47982781	     15.33418495	      5.20527443	     -1.77022335	     44.94418631	     -9.86565539	      5.37788707	     51.73875818	     51.73875818	      3.91691877	    -17.45906296	     14.08939313	    -10.39701283	      3.65801741	      3.99168427	     39.76957144	    -14.65741539	      5.41862910	    100.99627292	     44.07613809	      0.00000000	      0.00000000	     -9.97211643	     -6.86221113	     -7.11489019	     25.09411477	     46.22117163	      0.00000000	      0.00000000
     34.77200000	     -5.05755035	     -6.62082475	      1.76617852	      0.96940291	      0.92352441	      0.52255378	      1.77201922	      6.53444649	    -13.75799343	     10.31545641	     10.31545641	     15.91096516	      5.91787331	     -1.31000620	     44.35968664	     -9.52113060	      5.61099979	     47.20722135	     47.20722135	      3.23974870	    -16.96157941	     10.54613173	    -10.54306451	      3.67587957	      3.64749172	     42.13032715	    -14.23574804	      6.67586405	    102.26173624	     44.14912427	      0.00000000	      0.00000000	    -11.90646625	     -7.37036201	     -3.45216996	     27.43302705	     45.50377529	      0.00000000	      0.00000000
     34.78407143	     -5.21075130	     -6.59494976	      1.89868255	      0.96884620	      0.92234976	      0.52167240	      1.29840446	      6.46701279	    -13.96604592	     10.17741723	     10.17741723	     16.26604637	      6.25610602	     -1.45628101	     43.84044843	     -9.20536724	      5.94000094	     43.00677457	     43.00677457	      3.96840808	    -15.84993953	     10.96039514	    -10.57521708	      3.72616843	      3.78471827	     44.02371750	    -14.05148040	      7.02906853	    103.48903436	     44.12931876	      0.00000000	      0.00000000	    -12.59536643	     -7.36746418	     -2.97831437	     27.46484232	     45.41960184	      0.00000000	      0.00000000
     34.79614286	     -5.47404928	     -6.83911013	      2.00976713	      0.96854817	      0.92066298	      0.52086310	      1.02904681	      6.69316153	    -14.05495635	     10.21658315	     10.21658315	     16.59121562	      6.23957116	     -1.62728961	     43.42659324	     -9.19239382	      6.42503670	     39.06433112	     39.06433112	      4.66954503	    -14.59149250	     11.29890880	    -10.32221294	      4.06620769	      4.22233414	     45.51870961	    -14.02594967	      6.92593451	    103.97275483	     44.12678793	      0.00000000	      0.00000000	    -13.13464704	     -7.26781393	     -2.90905356	     27.39168297	     45.39948900	      0.00000000	      0.00000000
     34.80821429	     -5.46436916	     -6.63497702	      2.05831006	      0.96872065	      0.91945886	      0.51979763	      0.28910853	      6.40689912	    -14.31822873	     10.04293691	     10.04293691	     17.06490633	      6.89338802	     -1.61614051	     42.39107547	     -8.93241666	      6.37778233	     35.19446607	     35.19446607	      5.37741657	    -13.21143220	     11.94389106	    -10.55375033	      3.85731197	      3.95266769	     47.46078787	    -13.59035700	      7.87122580	    105.09988399	     44.09372857	      0.00000000	      0.00000000	    -14.04257573	     -7.27724514	     -2.27259694	     27.89457377	     45.28406493	      0.00000000	      0.00000000
     34.82028571	     -5.68610594	     -6.86855255	      2.12349387	      0.96893088	      0.91754610	      0.51876297	     -0.06014276	      6.60208822	    -14.34702938	     10.09988656	     10.09988656	     17.52180810	      6.92096729	     -1.80820356	     41.79139913	     -9.04374758	      6.55689858	     31.88592904	     31.88592904	      5.67955152	    -11.92206589	     12.43649400	    -10.30070906	      4.24025244	      4.28451670	     48.73673373	    -13.55387092	      7.81970273	    105.45027555	     44.09367815	      0.00000000	      0.00000000	    -14.56123642	     -7.16389595	     -2.17335310	     27.87828446	     45.26023595	      0.00000000	      0.00000000
     34.83235714	     -5.83528945	     -6.95449408	      2.11287879	      0.96950489	      0.91568626	      0.51763177	     -0.53568907	      6.61927354	    -14.30346924	     10.13345737	     10.13345737	     17.96515450	      7.04952406	     -1.97078847	     41.03543206	     -9.09831821	      6.44510334	     29.05227932	     29.05227932	      5.95690174	    -10.73277217	     12.89681175	    -10.15195856	      4.39727060	      4.49311621	     49.89865862	    -13.40498727	      7.89882214	    105.86227453	     44.08708643	      0.00000000	      0.00000000	    -15.08896640	     -7.07154821	     -2.06488999	     27.85891586	     45.23478795	      0.00000000	      0.00000000
     34.84442857	     -5.92755651	     -6.92578212	      2.09661584	      0.97039013	      0.91391867	      0.51631621	     -1.12768933	      6.49701838	    -14.29907653	     10.12093463	     10.12093463	     18.44623781	      7.29616184	     -2.09553586	     40.19746274	     -9.09004899	      5.98962008	     26.72311812	     26.72311812	      6.04885322	     -9.62897792	     13.37466344	    -10.06284444	      4.42456015	      4.53898352	     50.92129313	    -13.18118072	      8.12928982	    106.28709310	     44.07531382	      0.00000000	      0.00000000	    -15.54721737	     -6.96486832	     -1.92134272	     27.88510744	     45.20519101	      0.00000000	      0.00000000
